<svg width="720" height="720" viewBox="0 0 720 720" fill="none" xmlns="http://www.w3.org/2000/svg">
<path d="M720 550.653H0V551.013H720V550.653Z" fill="#E6E6E6"/>
<path d="M179.749 572.44H132.054V572.8H179.749V572.44Z" fill="#E6E6E6"/>
<path d="M116.96 572.44H89.3218V572.8H116.96V572.44Z" fill="#E6E6E6"/>
<path d="M303.198 577.74H275.562V578.1H303.198V577.74Z" fill="#E6E6E6"/>
<path d="M447.287 585.779H385.089V586.139H447.287V585.779Z" fill="#E6E6E6"/>
<path d="M372.269 585.779H363.149V586.139H372.269V585.779Z" fill="#E6E6E6"/>
<path d="M652.814 577.74H517.92V578.1H652.814V577.74Z" fill="#E6E6E6"/>
<path d="M341.3 486.432H63.2376C58.7059 486.432 55.0181 482.744 55.0181 478.212V87.3504C55.0181 82.8187 58.7059 79.1309 63.2376 79.1309H341.3C345.83 79.1309 349.518 82.8187 349.518 87.3504V478.212C349.518 482.744 345.83 486.432 341.3 486.432ZM63.2376 79.4923C58.9032 79.4923 55.3781 83.0174 55.3781 87.3518V478.214C55.3781 482.548 58.9032 486.073 63.2376 486.073H341.3C345.633 486.073 349.158 482.548 349.158 478.214V87.3504C349.158 83.0174 345.633 79.4909 341.3 79.4909L63.2376 79.4923Z" fill="#E6E6E6"/>
<path d="M652.766 486.432H374.705C370.175 486.432 366.487 482.744 366.487 478.212V87.3504C366.487 82.8187 370.175 79.1309 374.705 79.1309H652.766C657.3 79.1309 660.986 82.8187 660.986 87.3504V478.212C660.987 482.744 657.3 486.432 652.766 486.432ZM374.705 79.4923C370.372 79.4923 366.847 83.0174 366.847 87.3518V478.214C366.847 482.548 370.372 486.073 374.705 486.073H652.766C657.101 486.073 660.626 482.548 660.626 478.214V87.3504C660.626 83.0174 657.101 79.4909 652.766 79.4909L374.705 79.4923Z" fill="#E6E6E6"/>
<path d="M385.055 427.647H353.391V553.264H385.055V427.647Z" fill="#E0E0E0"/>
<path d="M379.041 553.265H385.055V536.158H372.735L379.041 553.265Z" fill="#FAFAFA"/>
<path d="M246.303 427.647H214.639V553.264H246.303V427.647Z" fill="#E0E0E0"/>
<path d="M385.056 427.647H241.055V542.768H385.056V427.647Z" fill="#FAFAFA"/>
<path d="M379.833 433.306V463.764H246.276V433.306H379.833ZM380.389 432.75H245.719V464.321H380.389V432.75Z" fill="#E0E0E0"/>
<path d="M247.068 553.265H241.055V536.158H253.374L247.068 553.265Z" fill="#FAFAFA"/>
<path d="M309.869 448.534C309.869 450.292 311.295 451.719 313.054 451.719C314.813 451.719 316.24 450.294 316.24 448.534C316.24 446.776 314.814 445.349 313.054 445.349C311.296 445.35 309.869 446.776 309.869 448.534Z" fill="#E6E6E6"/>
<path d="M379.833 469.979V500.436H246.276V469.979H379.833ZM380.389 469.423H245.719V500.993H380.389V469.423Z" fill="#E0E0E0"/>
<path d="M309.869 485.207C309.869 486.965 311.295 488.392 313.054 488.392C314.813 488.392 316.24 486.966 316.24 485.207C316.24 483.447 314.814 482.021 313.054 482.021C311.296 482.023 309.869 483.449 309.869 485.207Z" fill="#E6E6E6"/>
<path d="M379.833 506.651V537.109H246.276V506.651H379.833ZM380.389 506.095H245.719V537.666H380.389V506.095Z" fill="#E0E0E0"/>
<path d="M309.869 521.881C309.869 523.639 311.295 525.066 313.054 525.066C314.813 525.066 316.24 523.64 316.24 521.881C316.24 520.121 314.814 518.695 313.054 518.695C311.296 518.695 309.869 520.121 309.869 521.881Z" fill="#E6E6E6"/>
<path d="M226.959 354.695H195.294V553.265H226.959V354.695Z" fill="#E0E0E0"/>
<path d="M220.945 553.265H226.958V536.158H214.639L220.945 553.265Z" fill="#FAFAFA"/>
<path d="M108.615 354.695H76.9507V553.265H108.615V354.695Z" fill="#E0E0E0"/>
<path d="M226.959 354.695H103.368V542.768H226.959V354.695Z" fill="#FAFAFA"/>
<path d="M221.638 360.02V402.601H108.688V360.02H221.638ZM222.293 359.365H108.033V403.258H222.293V359.365Z" fill="#E0E0E0"/>
<path d="M221.638 407.776V520.724H167.838V407.776H221.638ZM222.293 407.121H167.181V521.382H222.293V407.121Z" fill="#E0E0E0"/>
<path d="M162.488 407.776V520.724H108.688V407.776H162.488ZM163.145 407.121H108.033V521.382H163.145V407.121Z" fill="#E0E0E0"/>
<path d="M109.381 553.265H103.368V536.158H115.687L109.381 553.265Z" fill="#FAFAFA"/>
<path d="M161.979 381.311C161.979 383.07 163.404 384.496 165.164 384.496C166.922 384.496 168.349 383.07 168.349 381.311C168.349 379.552 166.923 378.125 165.164 378.125C163.404 378.127 161.979 379.552 161.979 381.311Z" fill="#E6E6E6"/>
<path d="M173.38 461.558C173.38 463.316 174.806 464.743 176.566 464.743C178.325 464.743 179.751 463.317 179.751 461.558C179.751 459.799 178.325 458.372 176.566 458.372C174.806 458.372 173.38 459.798 173.38 461.558Z" fill="#E6E6E6"/>
<path d="M150.575 461.558C150.575 463.316 152.001 464.743 153.76 464.743C155.519 464.743 156.946 463.317 156.946 461.558C156.946 459.799 155.52 458.372 153.76 458.372C152.002 458.372 150.575 459.798 150.575 461.558Z" fill="#E6E6E6"/>
<path d="M146.988 299.331H133.631C133.631 299.331 135.949 311.679 135.949 318.946C135.949 326.212 125.788 354.695 140.309 354.695C154.829 354.695 144.67 326.21 144.67 318.946C144.668 311.678 146.988 299.331 146.988 299.331Z" fill="#E0E0E0"/>
<path d="M96.1963 328.533V337.212C96.1963 346.827 104.063 354.694 113.679 354.694H122.358C131.973 354.694 139.84 346.827 139.84 337.212V328.533H96.1963Z" fill="#F5F5F5"/>
<path d="M281.761 409.342C281.761 419.41 293.037 427.648 306.82 427.648H319.26C333.043 427.648 344.32 419.41 344.32 409.342H281.761Z" fill="#E0E0E0"/>
<path d="M611.432 394.603C603.887 400.762 593.473 412.04 583.93 427.907C577.574 438.474 573.743 449.546 572.061 464.174C572.097 447.615 572.149 429.824 572.207 413.034C574.124 408.712 578.501 398.755 581.642 390.887C592.121 364.634 596.023 358.178 605.448 335.534C618.018 305.332 630.898 269.495 627.211 272.359C619.695 278.194 590.894 332.124 587.78 339.844C577.073 366.398 574.09 385.753 572.237 404.431C572.295 388.66 572.357 374.18 572.417 363.007C572.61 326.563 573.231 314.801 573.533 311.174C574.698 309.331 576.075 307.182 576.875 306.024C583.64 296.243 586.25 287.909 592.625 273.319C601.658 252.645 609.437 215.94 607.163 217.791C597.693 225.5 590.224 242.073 580.409 263.19C570.596 284.308 573.401 296.451 571.454 314.487C571.045 318.027 570.732 331.383 570.506 349.894C567.96 330.173 563.185 317.177 554.473 305.368C543.757 290.843 533.39 281.03 525.784 275.905C518.178 270.782 538.918 306.462 548.837 322.036C557.67 335.904 565.806 348.143 570.394 360.196C570.151 385.284 570.038 417.053 570.038 446.625C567.763 433.166 564.048 418.676 559.091 407.454C553.136 393.971 543.973 373.291 536.679 366.277C534.927 364.592 544.305 404.811 550.323 415.506C556.342 426.201 560.76 436.28 564.549 442.342C565.433 443.756 568.365 449.211 570.04 452.347C570.055 488.448 570.24 520.304 570.554 531.147H572.113C572.007 528.349 571.989 509.985 572.023 485.679C575.778 472.481 584.368 457.422 591.455 443.683C599.192 428.684 618.979 388.443 611.432 394.603Z" fill="#E0E0E0"/>
<path d="M593.914 553.266H548.78L545.373 509.023H597.321L593.914 553.266Z" fill="#F0F0F0"/>
<path d="M600.684 514.178H542.009L540.328 499.251H602.365L600.684 514.178Z" fill="#F5F5F5"/>
<path d="M178.935 108.716H98.2197V197.346H178.935V108.716Z" fill="#E0E0E0"/>
<path d="M187.677 108.716H104.304V197.346H187.677V108.716Z" fill="#F5F5F5"/>
<path d="M180.691 190.361V115.7L111.287 115.7L111.287 190.361H180.691Z" fill="white"/>
<path d="M163.869 172.266V133.798H128.111V172.266H163.869Z" fill="#F5F5F5"/>
<path d="M590.473 119.048H515.493V201.382H590.473V119.048Z" fill="#E0E0E0"/>
<path d="M598.595 119.048H521.145V201.382H598.595V119.048Z" fill="#F5F5F5"/>
<path d="M592.106 194.894V125.537L527.633 125.537V194.894H592.106Z" fill="white"/>
<path d="M559.869 180.33C570.978 180.33 579.983 171.324 579.983 160.216C579.983 149.107 570.978 140.102 559.869 140.102C548.761 140.102 539.755 149.107 539.755 160.216C539.755 171.324 548.761 180.33 559.869 180.33Z" fill="#F5F5F5"/>
<path d="M262.784 161.564H202.909V227.311H262.784V161.564Z" fill="#E0E0E0"/>
<path d="M269.272 161.564H207.424V227.311H269.272V161.564Z" fill="#F5F5F5"/>
<path d="M264.09 222.131V166.746H212.606V222.131H264.09Z" fill="white"/>
<path d="M238.347 180.436L224.267 204.826H252.428L238.347 180.436Z" fill="#F5F5F5"/>
<path d="M360 615.688C514.198 615.688 639.2 608.388 639.2 599.383C639.2 590.378 514.198 583.078 360 583.078C205.802 583.078 80.7998 590.378 80.7998 599.383C80.7998 608.388 205.802 615.688 360 615.688Z" fill="#F5F5F5"/>
<path d="M502.915 235.342L488.631 229.55C488.631 229.55 469.782 263.927 464.383 265.663C457.036 268.024 441.843 274.589 432.814 275.819C431.597 277.242 429.59 281.729 429.781 283.365C441.895 287.404 468.506 282.04 474.202 277.81C487.188 268.164 502.915 235.342 502.915 235.342Z" fill="#E58A7B"/>
<path d="M507.312 227.542C509.969 237.39 495.542 257.171 495.542 257.171L476.588 246.539C476.588 246.539 480.122 238.408 484.448 230.126C491.433 216.753 504.278 216.302 507.312 227.542Z" fill="#407BFF"/>
<path opacity="0.2" d="M507.312 227.542C509.969 237.39 495.542 257.171 495.542 257.171L476.588 246.539C476.588 246.539 480.122 238.408 484.448 230.126C491.433 216.753 504.278 216.302 507.312 227.542Z" fill="black"/>
<path opacity="0.2" d="M484.146 250.773L491.589 254.946L492.891 232.099C488.571 235.428 485.506 245.446 484.146 250.773Z" fill="black"/>
<path d="M494.873 220.123C494.873 220.123 480.158 252.862 488.738 313.833C506.21 313.833 538.225 313.833 546.726 313.833C547.648 304.931 544.601 261.507 555.646 219.564C555.646 219.564 545.822 217.569 536.377 217.113C528.988 216.756 518.275 216.52 511.726 217.114C503.091 217.898 494.873 220.123 494.873 220.123Z" fill="#407BFF"/>
<path opacity="0.2" d="M494.873 220.123C494.873 220.123 480.158 252.862 488.738 313.833C506.21 313.833 538.225 313.833 546.726 313.833C547.648 304.931 544.601 261.507 555.646 219.564C555.646 219.564 545.822 217.569 536.377 217.113C528.988 216.756 518.275 216.52 511.726 217.114C503.091 217.898 494.873 220.123 494.873 220.123Z" fill="black"/>
<path d="M481.425 600.684C481.334 602.231 503.32 603.484 530.532 603.484C557.744 603.484 579.876 602.231 579.967 600.684C580.058 599.138 558.072 597.885 530.86 597.885C503.649 597.884 481.516 599.138 481.425 600.684Z" fill="#E8ECF1"/>
<path d="M521.483 561.827L511.164 565.803L520.013 588.77L530.332 584.794L521.483 561.827Z" fill="#E58A7B"/>
<path d="M565.994 589.614H555.152L551.175 564.506H562.017L565.994 589.614Z" fill="#E58A7B"/>
<path d="M554.455 588.358H566.636C567.079 588.358 567.445 588.666 567.516 589.098L569.092 598.735C569.257 599.734 568.416 600.68 567.392 600.663C563.144 600.589 561.092 600.34 555.736 600.34C552.442 600.34 545.632 600.683 541.08 600.683C536.629 600.683 536.199 596.183 538.086 595.775C546.546 593.948 549.841 591.428 552.656 589.025C553.163 588.591 553.807 588.358 554.455 588.358Z" fill="#263238"/>
<path d="M518.36 584.562L529.91 581.204C530.342 581.079 530.787 581.265 530.979 581.652L535.258 590.286C535.702 591.18 535.178 592.304 534.176 592.577C529.992 593.719 527.18 594.433 521.943 595.955C518.324 597.007 514.643 598.72 511.068 599.861C508.593 600.65 502.779 600.682 499.768 600.682C495.317 600.682 494.325 595.989 496.233 595.774C501.061 595.233 501.709 595.483 504.375 594.147C508.781 591.936 512.19 590.106 516.004 586.11C516.669 585.416 517.449 584.827 518.36 584.562Z" fill="#263238"/>
<path d="M434.64 275.715L422.709 270.696L417.797 283.912C417.797 283.912 424.682 285.16 432.544 283.912L434.64 275.715Z" fill="#E58A7B"/>
<path d="M413.843 270.371L413.528 279.165L417.797 283.912L422.709 270.695L413.843 270.371Z" fill="#E58A7B"/>
<path d="M521.522 561.801L511.201 565.785L515.77 577.622L526.091 573.638L521.522 561.801Z" fill="#CF6F64"/>
<path d="M562.019 564.513H551.173L553.23 577.454H564.076L562.019 564.513Z" fill="#CF6F64"/>
<path opacity="0.2" d="M486.897 297.341C487.105 299.946 487.357 302.609 487.666 305.346L530.787 291.348C537.521 289.335 543.38 285.103 547.376 279.318C547.539 275.471 547.761 271.431 548.086 267.214C548.234 265.157 548.411 263.055 548.604 260.925C548.812 258.706 549.048 256.441 549.314 254.163L486.897 297.341Z" fill="black"/>
<path d="M500.976 250.111L499.507 249.936C500.363 242.751 505.727 237.071 511.393 237.207L511.35 238.687C506.458 238.544 501.745 243.667 500.976 250.111Z" fill="white"/>
<path d="M508.649 263.408C508.568 263.408 508.487 263.406 508.405 263.405L508.448 261.924C513.401 262.106 518.053 256.944 518.822 250.5L520.291 250.675C519.447 257.759 514.253 263.408 508.649 263.408Z" fill="white"/>
<path d="M535.562 189.356C533.542 197.287 531.138 211.82 536.377 217.112C536.377 217.112 532.718 225.157 517.98 225.157C504.511 225.157 511.726 217.112 511.726 217.112C520.694 214.999 520.851 208.437 519.672 202.274L535.562 189.356Z" fill="#E58A7B"/>
<path d="M529.083 194.627L519.679 202.27C519.962 203.728 520.164 205.207 520.183 206.644C522.932 209.382 528.45 202.447 529.016 198.909C529.296 197.146 529.322 195.45 529.083 194.627Z" fill="#CF6F64"/>
<path d="M503.516 189.258C504.894 191.726 507.327 193.262 509.625 193.773C513.082 194.544 514.82 191.363 513.867 188.162C513.009 185.28 510.176 181.408 506.702 182.072C503.279 182.727 501.94 186.435 503.516 189.258Z" fill="#CF6F64"/>
<path d="M509.222 163.872C503.836 166.34 501.938 187.734 508.709 190.898C515.48 194.06 519.422 159.199 509.222 163.872Z" fill="#263238"/>
<path d="M537.205 177.42C535.916 188.159 535.705 194.479 529.958 199.992C521.312 208.283 508.343 203.365 506.409 192.645C504.668 182.995 507.069 167.053 517.833 162.779C528.437 158.569 538.494 166.68 537.205 177.42Z" fill="#E58A7B"/>
<path d="M519.515 169.438C527.481 167.4 533.345 166.012 531.252 172.662C528.464 181.521 525.121 190.103 529.606 190.503C532.334 190.747 544.431 185.613 542.895 180.423C541.557 175.902 547.18 174.682 548.217 172.377C551.951 164.074 541.282 165.152 543.18 160.128C545.029 155.236 534.584 146.969 528.797 151.008C519.43 157.547 503.331 157.454 511.795 146.729C517.856 139.048 507.042 140.625 507.042 140.625C507.042 140.625 513.573 144.5 502.579 150.49C490.924 156.838 501.593 174.022 519.515 169.438Z" fill="#263238"/>
<path d="M541.362 189.258C539.693 191.726 537.083 193.262 534.724 193.773C531.176 194.544 529.812 191.363 531.14 188.162C532.336 185.28 535.622 181.408 539.019 182.072C542.365 182.727 543.269 186.435 541.362 189.258Z" fill="#E58A7B"/>
<path d="M488.737 313.833C488.737 313.833 479.004 400.949 478.244 434.012C477.455 468.402 511.232 575.699 511.232 575.699L528.527 568.436C528.527 568.436 508.389 470.41 511.187 436.635C514.237 399.816 526.856 313.832 526.856 313.832H488.737V313.833Z" fill="#407BFF"/>
<path opacity="0.2" d="M512.927 337.753C505.172 353.852 510.396 385.682 514.598 404.551C516.197 391.232 518.09 376.776 519.896 363.398C519.719 342.829 518.121 326.952 512.927 337.753Z" fill="black"/>
<path d="M527.746 562.789C527.826 562.756 529.796 568.302 529.796 568.302L509.861 576.673L506.72 570.833L527.746 562.789Z" fill="#407BFF"/>
<path d="M509.308 313.833C509.308 313.833 516.754 396.688 521.689 427.729C527.094 461.72 548.322 574.949 548.322 574.949H568.18C568.18 574.949 556.281 464.465 554.033 430.81C551.594 394.283 546.725 313.833 546.725 313.833H509.308Z" fill="#407BFF"/>
<path d="M568.483 569.775C568.568 569.775 569.147 575.325 569.147 575.325H547.321L545.763 568.954L568.483 569.775Z" fill="#407BFF"/>
<path opacity="0.2" d="M560.876 563.216C560.782 563.216 560.703 563.145 560.693 563.051C560.585 562.046 549.855 462.299 547.836 432.062C545.646 399.249 541.241 326.493 541.197 325.761C541.191 325.659 541.269 325.571 541.369 325.565C541.374 325.565 541.378 325.565 541.381 325.565C541.477 325.565 541.561 325.641 541.567 325.739C541.61 326.469 546.015 399.225 548.207 432.036C550.224 462.267 560.952 562.007 561.06 563.011C561.071 563.113 560.998 563.204 560.897 563.214C560.889 563.216 560.881 563.216 560.876 563.216Z" fill="black"/>
<path d="M520.739 180.422C520.687 181.296 520.183 182.006 519.611 182.006C519.039 182.006 518.618 181.297 518.669 180.422C518.72 179.548 519.225 178.838 519.797 178.838C520.369 178.838 520.79 179.548 520.739 180.422Z" fill="#263238"/>
<path d="M510.854 180.422C510.803 181.296 510.298 182.006 509.727 182.006C509.155 182.006 508.733 181.297 508.785 180.422C508.837 179.548 509.341 178.838 509.913 178.838C510.484 178.838 510.906 179.548 510.854 180.422Z" fill="#263238"/>
<path d="M513.971 180.857C513.971 180.857 511.687 185.902 509.354 188.336C510.817 189.78 513.485 189.119 513.485 189.119L513.971 180.857Z" fill="#DF5753"/>
<path d="M514.223 192.789C514.082 192.789 513.972 192.673 513.981 192.532C513.99 192.391 514.112 192.276 514.253 192.276C518.092 192.276 520.04 189.595 520.061 189.567C520.147 189.449 520.308 189.415 520.421 189.492C520.534 189.57 520.559 189.729 520.474 189.848C520.388 189.966 518.337 192.789 514.223 192.789Z" fill="#263238"/>
<path d="M522.497 177.762C522.349 177.82 522.182 177.811 522.043 177.723C520.154 176.534 518.393 177.332 518.376 177.342C518.134 177.466 517.813 177.358 517.705 177.101C517.597 176.845 517.723 176.538 517.985 176.416C518.079 176.371 520.284 175.37 522.628 176.846C522.863 176.995 522.92 177.31 522.759 177.552C522.693 177.65 522.599 177.722 522.497 177.762Z" fill="#263238"/>
<path d="M507.033 174.889C506.962 174.869 506.893 174.833 506.837 174.778C506.635 174.591 506.635 174.267 506.837 174.054C508.847 171.93 511.177 172.254 511.275 172.268C511.548 172.299 511.731 172.571 511.672 172.852C511.613 173.131 511.343 173.324 511.066 173.284C510.988 173.272 509.17 173.04 507.564 174.735C507.421 174.888 507.213 174.941 507.033 174.889Z" fill="#263238"/>
<path d="M561.211 233.736L546.231 229.749C546.231 229.749 531.543 265.905 526.355 268.265C519.294 271.477 501.418 282.588 493.821 287.947C493.399 289.738 493.73 294.513 494.686 295.813C507.605 293.466 532.457 283.912 537.64 279.055C549.457 267.982 561.211 233.736 561.211 233.736Z" fill="#E58A7B"/>
<path d="M550.758 590.252C549.933 590.252 549.17 590.111 548.703 589.7C548.333 589.373 548.182 588.915 548.253 588.342C548.305 587.915 548.542 587.711 548.735 587.616C549.958 587.003 553.34 589.149 553.722 589.396C553.805 589.452 553.846 589.555 553.824 589.657C553.801 589.758 553.72 589.84 553.618 589.863C552.854 590.044 551.761 590.252 550.758 590.252ZM549.279 588.008C549.146 588.008 549.032 588.028 548.942 588.073C548.872 588.109 548.787 588.175 548.764 588.374C548.714 588.783 548.809 589.088 549.058 589.307C549.621 589.807 551.032 589.873 552.895 589.501C551.712 588.793 550.11 588.008 549.279 588.008Z" fill="#407BFF"/>
<path d="M553.558 589.87C553.516 589.87 553.474 589.86 553.437 589.84C552.349 589.229 550.32 586.855 550.621 585.645C550.675 585.426 550.859 585.048 551.478 584.973C551.883 584.922 552.241 585.035 552.552 585.301C553.752 586.331 553.827 589.46 553.83 589.592C553.833 589.686 553.782 589.777 553.7 589.827C553.655 589.856 553.607 589.87 553.558 589.87ZM551.628 585.475C551.591 585.475 551.552 585.48 551.511 585.484C551.176 585.524 551.137 585.678 551.121 585.743C550.943 586.457 552.22 588.253 553.285 589.1C553.212 588.185 552.973 586.361 552.205 585.701C552.028 585.549 551.84 585.475 551.628 585.475Z" fill="#407BFF"/>
<path d="M512.521 588.46C511.461 588.717 510.45 588.793 509.805 588.443C509.395 588.221 509.158 587.85 509.104 587.344C509.071 587.042 509.173 586.778 509.396 586.581C510.557 585.549 515.254 586.659 515.787 586.788C515.89 586.814 515.964 586.904 515.968 587.013C515.973 587.122 515.909 587.225 515.807 587.272C514.936 587.667 513.697 588.175 512.521 588.46ZM510.179 586.75C509.982 586.797 509.827 586.865 509.724 586.955C509.634 587.036 509.601 587.128 509.615 587.261C509.652 587.603 509.802 587.842 510.07 587.989C510.835 588.405 512.61 588.076 514.895 587.12C513.29 586.783 511.19 586.503 510.179 586.75Z" fill="#407BFF"/>
<path d="M515.759 587.287C515.723 587.295 515.687 587.295 515.651 587.291C514.256 587.032 511.275 585.376 511.248 584.136C511.241 583.846 511.377 583.449 512.06 583.213C512.555 583.027 513.065 583.065 513.543 583.299C515.108 584.071 515.926 586.836 515.961 586.953C515.985 587.039 515.962 587.134 515.899 587.205C515.86 587.246 515.811 587.274 515.759 587.287ZM512.354 583.649C512.305 583.661 512.254 583.678 512.203 583.694C511.756 583.851 511.76 584.034 511.76 584.094C511.778 584.837 513.847 586.205 515.309 586.666C515.018 585.871 514.318 584.267 513.293 583.762C512.984 583.609 512.675 583.571 512.354 583.649Z" fill="#407BFF"/>
<path d="M495.04 287.096L480.024 294.008L478.282 298.244L483.831 301.978C483.831 301.978 494.188 300.851 497.138 294.196L495.04 287.096Z" fill="#E58A7B"/>
<path d="M495.68 296.058C494.741 290.48 492.906 287.935 492.889 287.911L495.257 286.135C495.349 286.258 497.525 289.195 498.599 295.567L495.68 296.058Z" fill="#263238"/>
<path d="M498.237 289.139C498.724 290.344 497.942 291.796 496.489 292.383C495.036 292.971 493.465 292.47 492.979 291.264C492.492 290.059 493.274 288.608 494.727 288.02C496.178 287.434 497.751 287.934 498.237 289.139Z" fill="#263238"/>
<path d="M469.878 299.589L471.872 301.609L485.346 295.846L480.024 294.009L469.878 299.589Z" fill="#E58A7B"/>
<path opacity="0.2" d="M527.746 562.789C527.826 562.756 529.796 568.302 529.796 568.302L509.861 576.673L506.72 570.833L527.746 562.789Z" fill="black"/>
<path opacity="0.2" d="M568.483 569.775C568.568 569.775 569.147 575.325 569.147 575.325H547.321L545.763 568.954L568.483 569.775Z" fill="black"/>
<path d="M565.115 229.592C569.076 242.361 553.653 259.803 553.653 259.803L532.271 251.077C532.271 251.077 535.284 241.8 541.017 229.372C547.534 215.247 561.116 216.705 565.115 229.592Z" fill="#407BFF"/>
<path opacity="0.2" d="M565.115 229.592C569.076 242.361 553.653 259.803 553.653 259.803L532.271 251.077C532.271 251.077 535.284 241.8 541.017 229.372C547.534 215.247 561.116 216.705 565.115 229.592Z" fill="black"/>
<path d="M352.619 101.621H343.421V103.101H352.619V101.621Z" fill="#407BFF"/>
<path d="M471.748 160.316L470.635 185.025L472.112 185.091L473.225 160.383L471.748 160.316Z" fill="#407BFF"/>
<path d="M468.883 108.279H298.964L283.146 462.115H453.065L468.883 108.279Z" fill="#407BFF"/>
<path opacity="0.56" d="M463.81 113.135H293.891L278.074 466.97H447.993L463.81 113.135Z" fill="#FAFAFA"/>
<path opacity="0.07" d="M458.736 117.991H288.819L273.001 471.826H442.92L458.736 117.991Z" fill="#407BFF"/>
<path d="M439.396 272.313H294.363L293.152 299.393H438.186L439.396 272.313Z" fill="white"/>
<path d="M374.134 252.562H295.246L294.705 264.678H373.591L374.134 252.562Z" fill="#407BFF"/>
<path d="M436.13 345.383H291.096L289.885 372.463H434.919L436.13 345.383Z" fill="white"/>
<path opacity="0.47" d="M409.533 409.012H312.003L310.553 441.468H408.082L409.533 409.012Z" fill="#407BFF"/>
<path d="M403.01 446.495H305.482C305.436 446.495 305.391 446.475 305.358 446.442C305.326 446.409 305.309 446.363 305.312 446.317L306.763 413.86C306.766 413.768 306.843 413.696 306.933 413.696H404.462C404.508 413.696 404.552 413.716 404.585 413.75C404.617 413.783 404.634 413.829 404.631 413.875L403.18 446.331C403.177 446.423 403.101 446.495 403.01 446.495ZM305.66 446.152H402.846L404.28 414.039H307.095L305.66 446.152Z" fill="white"/>
<path d="M357.089 325.633H291.979L291.438 337.749H356.546L357.089 325.633Z" fill="#407BFF"/>
<path d="M407.673 184.866C407.31 192.974 404.371 200.462 399.659 206.545C392.544 215.764 381.4 221.757 369.133 221.757C356.865 221.757 346.271 215.764 339.981 206.545C335.814 200.462 333.545 192.976 333.907 184.866C334.819 164.49 352.07 147.976 372.432 147.976C392.808 147.974 408.583 164.49 407.673 184.866Z" fill="white"/>
<path d="M411.142 155.697C411.045 157.851 410.265 159.841 409.012 161.457C407.121 163.907 404.16 165.499 400.9 165.499C397.64 165.499 394.826 163.907 393.155 161.457C392.047 159.841 391.444 157.851 391.54 155.697C391.782 150.283 396.367 145.895 401.777 145.895C407.192 145.895 411.384 150.283 411.142 155.697Z" fill="#407BFF"/>
<path d="M309.982 285.853C309.875 288.249 307.845 290.192 305.448 290.192C303.052 290.192 301.196 288.249 301.303 285.853C301.409 283.457 303.44 281.514 305.836 281.514C308.233 281.513 310.09 283.457 309.982 285.853Z" fill="#263238"/>
<path d="M329.403 285.853C329.296 288.249 327.266 290.192 324.87 290.192C322.474 290.192 320.618 288.249 320.724 285.853C320.831 283.457 322.861 281.514 325.257 281.514C327.653 281.514 329.511 283.457 329.403 285.853Z" fill="#263238"/>
<path d="M348.826 285.853C348.719 288.249 346.689 290.192 344.293 290.192C341.897 290.192 340.04 288.249 340.147 285.853C340.254 283.457 342.284 281.514 344.68 281.514C347.076 281.513 348.932 283.457 348.826 285.853Z" fill="#263238"/>
<path d="M306.715 358.923C306.609 361.319 304.579 363.262 302.182 363.262C299.786 363.262 297.93 361.319 298.037 358.923C298.143 356.527 300.174 354.583 302.57 354.583C304.966 354.584 306.822 356.527 306.715 358.923Z" fill="#263238"/>
<path d="M326.137 358.923C326.03 361.319 324 363.262 321.604 363.262C319.208 363.262 317.351 361.319 317.458 358.923C317.565 356.527 319.595 354.583 321.991 354.583C324.389 354.584 326.243 356.527 326.137 358.923Z" fill="#263238"/>
<path d="M345.558 358.923C345.452 361.319 343.421 363.262 341.025 363.262C338.629 363.262 336.773 361.319 336.879 358.923C336.986 356.527 339.016 354.583 341.412 354.583C343.809 354.583 345.666 356.527 345.558 358.923Z" fill="#263238"/>
<path d="M364.981 358.923C364.875 361.319 362.844 363.262 360.448 363.262C358.052 363.262 356.196 361.319 356.302 358.923C356.409 356.527 358.439 354.583 360.835 354.583C363.231 354.584 365.088 356.527 364.981 358.923Z" fill="#263238"/>
<path d="M384.402 358.923C384.296 361.319 382.266 363.262 379.869 363.262C377.473 363.262 375.617 361.319 375.724 358.923C375.83 356.527 377.861 354.583 380.257 354.583C382.653 354.584 384.509 356.527 384.402 358.923Z" fill="#263238"/>
<path d="M386.26 172.535C385.891 180.775 378.913 187.455 370.672 187.455C362.432 187.455 356.05 180.775 356.419 172.535C356.787 164.294 363.765 157.615 372.007 157.615C380.246 157.615 386.628 164.295 386.26 172.535Z" fill="#407BFF"/>
<path d="M399.659 206.544C392.544 215.762 381.4 221.756 369.132 221.756C356.865 221.756 346.271 215.762 339.981 206.544C346.981 199.574 358.06 195.047 370.328 195.047C382.608 195.047 393.283 199.574 399.659 206.544Z" fill="#407BFF"/>
<path opacity="0.1" d="M386.26 172.535C385.891 180.775 378.913 187.455 370.672 187.455C362.432 187.455 356.05 180.775 356.419 172.535C356.787 164.294 363.765 157.615 372.007 157.615C380.246 157.615 386.628 164.295 386.26 172.535Z" fill="white"/>
<path opacity="0.1" d="M399.659 206.544C392.544 215.762 381.4 221.756 369.132 221.756C356.865 221.756 346.271 215.762 339.981 206.544C346.981 199.574 358.06 195.047 370.328 195.047C382.608 195.047 393.283 199.574 399.659 206.544Z" fill="white"/>
<path d="M187.786 305.918C186.422 308.909 184.987 312.199 183.727 315.409C182.457 318.649 181.189 321.892 180.085 325.181C177.939 331.759 175.928 338.397 174.937 345.054L174.609 347.174C174.583 347.429 174.602 347.792 174.714 348.247C174.924 349.161 175.494 350.385 176.296 351.586C177.918 354.015 180.216 356.475 182.694 358.759C185.167 361.079 187.852 363.298 190.643 365.404C193.406 367.53 196.321 369.611 199.172 371.56L196.488 376.613C189.637 373.618 183.256 370.037 177.075 365.543C174.037 363.227 171.036 360.734 168.378 357.365C167.067 355.666 165.779 353.746 164.935 351.212C164.526 349.947 164.241 348.518 164.239 346.971C164.249 346.615 164.268 346.116 164.293 345.877L164.363 345.161L164.507 343.73C165.29 336.096 166.981 328.759 169.209 321.643C170.332 318.089 171.53 314.571 172.898 311.119C174.295 307.645 175.673 304.31 177.42 300.812L187.786 305.918Z" fill="#E58A7B"/>
<path d="M197.156 370.702L207.331 365.54L204.703 376.723C204.703 376.723 197.716 378.674 194.466 375.284L197.156 370.702Z" fill="#E58A7B"/>
<path d="M216.649 367.376L213.942 376.62L204.702 376.724L207.331 365.54L216.649 367.376Z" fill="#E58A7B"/>
<path d="M231.022 252.001C231.022 252.001 231.905 255.247 233.304 257.694C232.102 258.817 231.022 258.427 231.022 258.427V252.001Z" fill="#DF5753"/>
<path d="M230.721 252.086C231.317 252.086 231.8 251.348 231.8 250.436C231.8 249.525 231.317 248.786 230.721 248.786C230.125 248.786 229.643 249.525 229.643 250.436C229.643 251.348 230.125 252.086 230.721 252.086Z" fill="#263238"/>
<path d="M230.458 248.836L232.646 248.206C232.646 248.206 231.523 249.916 230.458 248.836Z" fill="#263238"/>
<path d="M202.892 262.564C204.206 269.267 205.518 281.55 200.827 286.023C200.827 286.023 202.66 292.822 215.116 292.822C228.813 292.822 221.662 286.023 221.662 286.023C214.187 284.237 214.38 278.692 215.682 273.483L202.892 262.564Z" fill="#E58A7B"/>
<path d="M199.257 247.308C199.944 258.5 199.996 263.251 205.649 268.995C214.151 277.635 227.746 274.343 230.417 263.173C232.821 253.117 231.293 236.506 220.339 232.052C209.545 227.664 198.569 236.117 199.257 247.308Z" fill="#E58A7B"/>
<path d="M200.36 234.645C194.749 236.691 187.262 235.169 190.2 252.491C193.31 270.832 188.522 276.866 188.522 276.866C188.522 276.866 209.822 281.403 231.566 276.595C231.566 276.595 224.928 264.986 226.791 256.514C229.167 245.71 227.284 241.717 227.284 241.717C227.284 241.717 208.251 231.768 200.36 234.645Z" fill="#263238"/>
<path d="M224.122 253.14C224.099 255.358 224.876 257.591 225.884 259.142C227.4 261.477 229.2 260.526 229.651 258.103C230.057 255.922 229.756 252.08 227.814 250.59C225.901 249.124 224.149 250.606 224.122 253.14Z" fill="#E58A7B"/>
<path d="M195.486 236.605C193.866 232.076 201.561 225.111 217.83 228.008C234.099 230.905 234.814 244.436 234.814 244.436L231.522 240.529L231.67 244.643L214.95 247.856L195.486 236.605Z" fill="#263238"/>
<path d="M196.865 286.785C196.641 285.401 197.571 284.098 198.953 283.87C204.019 283.033 215.534 281.34 221.33 282.142C225.635 282.738 226.774 285.252 226.956 287.309C227.091 288.834 225.83 290.12 224.3 290.051L199.26 288.919C198.058 288.864 197.057 287.974 196.865 286.785Z" fill="#407BFF"/>
<path opacity="0.6" d="M196.865 286.785C196.641 285.401 197.571 284.098 198.953 283.87C204.019 283.033 215.534 281.34 221.33 282.142C225.635 282.738 226.774 285.252 226.956 287.309C227.091 288.834 225.83 290.12 224.3 290.051L199.26 288.919C198.058 288.864 197.057 287.974 196.865 286.785Z" fill="black"/>
<path d="M211.334 538.361L220.615 544.804L236.156 523.742L226.875 517.3L211.334 538.361Z" fill="#E58A7B"/>
<path d="M189.669 537.935L199.487 543.527L213.241 521.251L203.424 515.661L189.669 537.935Z" fill="#E58A7B"/>
<path d="M236.148 523.747L228.141 534.604L218.857 528.159L226.865 517.301L236.148 523.747Z" fill="#CF6F64"/>
<path d="M203.419 515.666L213.239 521.258L206.145 532.738L196.324 527.145L203.419 515.666Z" fill="#CF6F64"/>
<path d="M219.165 357.103C219.165 357.103 255.424 402.801 248.622 446.501C243.127 481.798 211.307 529.593 211.307 529.593L196.345 522.157C196.345 522.157 212.602 490.393 223.276 456.722C227.753 442.601 225.845 427.045 217.476 414.822C199.109 387.995 169.682 403.957 189.477 357.104L219.165 357.103Z" fill="#407BFF"/>
<path opacity="0.6" d="M219.165 357.103C219.165 357.103 255.424 402.801 248.622 446.501C243.127 481.798 211.307 529.593 211.307 529.593L196.345 522.157C196.345 522.157 212.602 490.393 223.276 456.722C227.753 442.601 225.845 427.045 217.476 414.822C199.109 387.995 169.682 403.957 189.477 357.104L219.165 357.103Z" fill="black"/>
<path opacity="0.4" d="M236.951 386.467L231.683 381.229C231.683 381.643 241.894 444.666 244.764 462.378C246.495 456.948 247.827 451.591 248.626 446.501C251.955 425.104 244.956 403.219 236.951 386.467Z" fill="black"/>
<path d="M235.36 357.103C235.36 357.103 279.019 414.53 280.247 448.968C281.277 477.822 232.691 533.56 232.691 533.56L218.586 524.435C218.586 524.435 246.996 484.811 254.149 452.419C251.421 420.358 192.888 357.101 192.888 357.101H235.36V357.103Z" fill="#407BFF"/>
<path opacity="0.6" d="M235.36 357.103C235.36 357.103 279.019 414.53 280.247 448.968C281.277 477.822 232.691 533.56 232.691 533.56L218.586 524.435C218.586 524.435 246.996 484.811 254.149 452.419C251.421 420.358 192.888 357.101 192.888 357.101H235.36V357.103Z" fill="black"/>
<path d="M181.344 288.59C176.668 289.693 172.2 306.667 172.2 306.667L190.434 318.839C190.434 318.839 196.511 305.424 194.39 299.547C192.18 293.427 187.248 287.198 181.344 288.59Z" fill="#407BFF"/>
<path opacity="0.2" d="M184.912 299.511L183.638 314.299L190.426 318.842C190.426 318.842 193.607 311.813 194.554 305.687L184.912 299.511Z" fill="black"/>
<path d="M240.758 288.917C240.758 288.917 246.139 290.812 235.36 357.103C217.152 357.103 198.336 357.103 189.477 357.103C190.247 338.429 190.269 326.913 181.344 288.59C181.344 288.59 190.957 286.5 200.827 286.023C208.548 285.651 214.874 285.404 221.662 286.024C230.61 286.841 240.758 288.917 240.758 288.917Z" fill="#407BFF"/>
<path d="M245.418 299.444C246.458 302.316 247.558 305.424 248.703 308.408C249.801 311.436 250.942 314.459 252.118 317.468L255.649 326.513L256.542 328.774L256.99 329.904L257.214 330.468C257.253 330.569 257.246 330.561 257.232 330.551C257.17 330.523 257.116 330.238 256.224 329.652C255.786 329.38 255.052 329.118 254.343 329.103C253.63 329.077 253.066 329.252 252.742 329.393C252.092 329.702 252.082 329.836 252.097 329.815C252.138 329.793 252.272 329.665 252.419 329.488C253.048 328.732 253.809 327.429 254.476 326.133C255.157 324.812 255.8 323.401 256.441 321.97C257.716 319.1 258.875 316.104 260.054 313.105C261.22 310.097 262.319 307.044 263.408 303.983L266.685 294.792L272.234 296.191C271.136 302.764 269.716 309.203 268.024 315.664C267.198 318.901 266.242 322.111 265.149 325.351C264.604 326.974 263.995 328.592 263.296 330.242C262.568 331.906 261.847 333.546 260.56 335.451C260.221 335.933 259.838 336.443 259.304 337.005C258.739 337.558 258.087 338.226 256.68 338.858C255.98 339.159 255.007 339.425 253.884 339.381C252.765 339.349 251.63 338.952 250.845 338.465C249.25 337.445 248.698 336.475 248.226 335.746C248.007 335.38 247.82 335.003 247.69 334.731L247.417 334.172L246.869 333.055L245.781 330.818C244.358 327.822 242.964 324.809 241.644 321.764C240.336 318.711 239.062 315.641 237.826 312.548C236.644 309.407 235.475 306.364 234.434 303.024L245.418 299.444Z" fill="#E58A7B"/>
<path d="M240.758 288.917C246.273 290.23 252.47 306.526 252.47 306.526L236.08 320.492C236.08 320.492 225.457 302.724 227.607 296.857C229.844 290.747 233.554 287.201 240.758 288.917Z" fill="#407BFF"/>
<path d="M269.246 289.712L274.999 284.901L279 291.135L276.053 296.34C276.053 296.34 271.358 300.637 267.202 298.452C265.86 295.409 266.694 291.846 269.246 289.712Z" fill="#E58A7B"/>
<path d="M285.44 284.916L285.009 286.484L275.896 288.014L274.997 284.901L285.44 284.916Z" fill="#E58A7B"/>
<path d="M233.859 534.316L217.416 523.68L220.36 518.56L238.84 529.92L233.859 534.316Z" fill="#407BFF"/>
<path d="M205.896 542.773C204.588 542.773 202.867 541.944 201.825 541.365C201.731 541.313 201.678 541.211 201.69 541.103C201.7 540.998 201.773 540.909 201.874 540.874C202.317 540.734 206.218 539.539 207.323 540.467C207.497 540.613 207.691 540.884 207.63 541.335C207.549 541.932 207.275 542.354 206.817 542.582C206.552 542.714 206.239 542.773 205.896 542.773ZM202.657 541.202C204.446 542.112 205.886 542.448 206.578 542.104C206.874 541.957 207.043 541.682 207.101 541.263C207.131 541.037 207.052 540.937 206.979 540.877C206.398 540.389 204.235 540.769 202.657 541.202Z" fill="#263238"/>
<path d="M201.956 541.397C201.884 541.397 201.815 541.368 201.764 541.316C201.698 541.247 201.674 541.149 201.7 541.057C201.737 540.924 202.636 537.797 204.114 537.084C204.509 536.895 204.909 536.885 205.301 537.048C205.923 537.31 205.985 537.765 205.963 538.011C205.863 539.306 203.223 541.094 202.019 541.388C201.999 541.394 201.978 541.397 201.956 541.397ZM204.747 537.47C204.614 537.47 204.48 537.503 204.345 537.568C203.464 537.993 202.723 539.68 202.369 540.707C203.636 540.174 205.366 538.76 205.428 537.971C205.438 537.843 205.409 537.676 205.091 537.543C204.977 537.494 204.862 537.47 204.747 537.47Z" fill="#263238"/>
<path d="M226.466 548.996C224.845 548.996 222.584 546.912 221.347 545.632C221.268 545.55 221.249 545.427 221.299 545.325C221.351 545.224 221.481 545.167 221.573 545.18C222.143 545.253 227.152 545.93 227.859 547.344C227.994 547.617 227.983 547.908 227.826 548.186C227.561 548.653 227.176 548.921 226.685 548.983C226.615 548.991 226.541 548.996 226.466 548.996ZM222.295 545.825C224.115 547.593 225.704 548.572 226.619 548.45C226.939 548.409 227.18 548.238 227.36 547.921C227.43 547.8 227.435 547.694 227.379 547.583C226.995 546.814 224.321 546.15 222.295 545.825Z" fill="#263238"/>
<path d="M222.453 545.78C222.083 545.78 221.752 545.757 221.491 545.708C221.399 545.691 221.321 545.626 221.288 545.538C221.256 545.449 221.272 545.348 221.333 545.275C221.415 545.175 223.363 542.827 225.203 542.666C225.779 542.621 226.267 542.774 226.685 543.131C227.251 543.616 227.212 544.048 227.08 544.324C226.623 545.283 224.135 545.78 222.453 545.78ZM222.081 545.24C223.69 545.33 226.262 544.795 226.597 544.094C226.626 544.035 226.711 543.856 226.338 543.538C226.027 543.272 225.667 543.161 225.251 543.198C224.043 543.305 222.693 544.586 222.081 545.24Z" fill="#263238"/>
<path d="M202.35 539.882L190.136 536.429C189.691 536.303 189.243 536.509 189.059 536.926L184.936 546.195C184.508 547.157 185.102 548.349 186.133 548.621C190.411 549.752 192.534 550.081 197.905 551.601C201.21 552.535 205.94 554.243 210.503 555.532C214.966 556.793 216.585 552.378 214.8 551.432C206.798 547.191 206.168 544.284 203.979 541.063C203.584 540.482 203.001 540.066 202.35 539.882Z" fill="#407BFF"/>
<path d="M221.679 543.95L211.254 536.711C210.874 536.448 210.384 536.498 210.073 536.831L203.158 544.255C202.441 545.026 202.615 546.346 203.501 546.938C207.179 549.399 209.079 550.401 213.664 553.585C216.485 555.543 222.116 559.886 226.011 562.591C229.821 565.236 232.788 561.587 231.408 560.112C225.222 553.5 223.857 549.356 222.836 545.596C222.65 544.919 222.234 544.334 221.679 543.95Z" fill="#407BFF"/>
<path d="M213.228 530.548L194.426 521.204L196.373 516.116L216.44 525.953L213.228 530.548Z" fill="#407BFF"/>
<path d="M188.79 354.41L187.199 358.517C187.037 358.835 187.415 359.16 187.946 359.16H235.586C235.999 359.16 236.342 358.957 236.368 358.698L236.781 354.591C236.81 354.306 236.451 354.066 235.999 354.066H189.536C189.196 354.066 188.894 354.205 188.79 354.41Z" fill="#407BFF"/>
<path opacity="0.4" d="M188.79 354.41L187.199 358.517C187.037 358.835 187.415 359.16 187.946 359.16H235.586C235.999 359.16 236.342 358.957 236.368 358.698L236.781 354.591C236.81 354.306 236.451 354.066 235.999 354.066H189.536C189.196 354.066 188.894 354.205 188.79 354.41Z" fill="white"/>
<path d="M196.282 359.605H195.038C194.79 359.605 194.601 359.477 194.619 359.322L195.202 353.987C195.219 353.831 195.435 353.703 195.684 353.703H196.929C197.176 353.703 197.365 353.831 197.348 353.987L196.764 359.322C196.747 359.479 196.53 359.605 196.282 359.605Z" fill="#407BFF"/>
<path d="M225.668 359.605H224.424C224.176 359.605 223.988 359.477 224.005 359.322L224.588 353.987C224.605 353.831 224.821 353.703 225.071 353.703H226.315C226.562 353.703 226.751 353.831 226.734 353.987L226.151 359.322C226.133 359.479 225.916 359.605 225.668 359.605Z" fill="#407BFF"/>
<path d="M195.186 603.485C216.493 603.485 233.766 602.232 233.766 600.686C233.766 599.14 216.493 597.886 195.186 597.886C173.88 597.886 156.607 599.14 156.607 600.686C156.607 602.232 173.88 603.485 195.186 603.485Z" fill="#F5F5F5"/>
<path d="M218.697 596.736C211.872 594.755 204.359 592.201 199.711 589.487C199.581 589.412 199.444 589.357 199.313 589.288V558.431H213.042C215.313 558.431 217.153 556.59 217.153 554.319C217.153 552.05 215.313 550.21 213.042 550.21H199.313V409.344H191.092V550.21H177.363C175.094 550.21 173.254 552.05 173.254 554.319C173.254 556.59 175.094 558.431 177.363 558.431H191.092V589.287C190.961 589.356 190.825 589.409 190.695 589.486C186.047 592.2 178.534 594.753 171.708 596.735C169.469 597.384 169.942 600.683 172.273 600.683H195.202H218.131C220.464 600.684 220.936 597.385 218.697 596.736Z" fill="#E0E0E0"/>
<path d="M220.81 425.156H169.596C165.494 425.156 162.137 421.799 162.137 417.697V402.471C162.137 398.369 165.494 395.012 169.596 395.012H220.81C224.913 395.012 228.269 398.369 228.269 402.471V417.697C228.269 421.799 224.913 425.156 220.81 425.156Z" fill="#407BFF"/>
<path d="M169.125 425.156V427.777C169.125 429.937 171.477 431.705 174.35 431.705H216.057C218.929 431.705 221.281 429.938 221.281 427.777V425.156H169.125Z" fill="#407BFF"/>
<path opacity="0.3" d="M169.125 425.156V427.777C169.125 429.937 171.477 431.705 174.35 431.705H216.057C218.929 431.705 221.281 429.938 221.281 427.777V425.156H169.125Z" fill="white"/>
</svg>
