<svg width="21" height="22" viewBox="0 0 21 22" fill="none" xmlns="http://www.w3.org/2000/svg">
<rect x="0.5" y="1" width="20" height="20" rx="4.5" stroke="black"/>
<path d="M16.4926 6.09503C16.7233 6.23796 16.861 6.46118 16.9686 6.714C17.0282 7.00923 17.0078 7.26768 16.8658 7.53264C16.5363 7.97217 16.1331 8.35852 15.7584 8.75434C15.686 8.83099 15.6136 8.90765 15.5412 8.98431C15.3049 9.23448 15.0683 9.48442 14.8318 9.73434C14.7706 9.79899 14.7095 9.86363 14.6483 9.92828C14.2883 10.3088 13.9282 10.6893 13.5679 11.0697C13.4801 11.1624 13.3923 11.255 13.3045 11.3477C13.2826 11.3708 13.2608 11.3938 13.2383 11.4175C12.8842 11.7914 12.5304 12.1657 12.1767 12.5402C11.8128 12.9254 11.4486 13.3104 11.0841 13.695C10.8797 13.9106 10.6755 14.1264 10.4717 14.3425C10.2801 14.5456 10.0882 14.7482 9.89594 14.9505C9.82552 15.0248 9.75525 15.0992 9.68514 15.1737C9.58932 15.2756 9.49298 15.3769 9.39649 15.478C9.36897 15.5076 9.34145 15.5371 9.3131 15.5675C9.10437 15.7845 8.88865 15.9474 8.59513 16C8.55408 15.9995 8.51302 15.9991 8.47072 15.9986C8.40914 15.9993 8.40914 15.9993 8.34631 16C7.97833 15.934 7.74712 15.6953 7.49465 15.4256C7.45943 15.3887 7.4242 15.3518 7.38791 15.3138C7.27218 15.1923 7.15708 15.0702 7.04201 14.948C6.96145 14.863 6.88086 14.7781 6.80025 14.6932C6.63161 14.5155 6.46332 14.3374 6.29524 14.1591C6.1014 13.9534 5.90703 13.7484 5.71236 13.5436C5.52444 13.3459 5.3369 13.1478 5.14952 12.9495C5.07003 12.8655 4.99046 12.7816 4.9108 12.6977C4.79945 12.5804 4.68854 12.4627 4.57773 12.3449C4.54491 12.3104 4.51208 12.276 4.47826 12.2406C4.21918 11.9635 4.03747 11.7101 4 11.3149C4.02369 11.0051 4.11156 10.7327 4.33537 10.522C4.52723 10.3605 4.71334 10.3028 4.95743 10.2995C4.99966 10.2982 5.04189 10.2969 5.08539 10.2955C5.41745 10.3455 5.64523 10.5504 5.87286 10.7964C5.90077 10.8258 5.92867 10.8552 5.95743 10.8855C6.04869 10.9818 6.13932 11.0788 6.22995 11.1759C6.29345 11.2432 6.35699 11.3105 6.42057 11.3777C6.58714 11.5541 6.75318 11.731 6.91912 11.908C7.0888 12.0888 7.25897 12.2691 7.42911 12.4495C7.76237 12.8029 8.09508 13.1569 8.42745 13.5113C8.61531 13.4355 8.7404 13.2843 8.8786 13.1365C8.90642 13.1071 8.93425 13.0777 8.96291 13.0474C9.05626 12.9487 9.1493 12.8496 9.24234 12.7506C9.30914 12.6798 9.37597 12.6091 9.44281 12.5383C9.58683 12.3858 9.73071 12.2332 9.87449 12.0805C10.1019 11.839 10.3297 11.5979 10.5576 11.3568C10.8771 11.0188 11.1965 10.6806 11.5158 10.3423C11.5462 10.3101 11.5462 10.3101 11.5772 10.2773C11.8645 9.97285 12.1516 9.66828 12.4388 9.36366C12.4691 9.33151 12.4691 9.33151 12.5 9.2987C12.5202 9.27729 12.5404 9.25588 12.5612 9.23382C12.8981 8.8764 13.2353 8.51934 13.5728 8.16255C13.7993 7.92306 14.0255 7.68316 14.2513 7.44295C14.392 7.29346 14.5331 7.14435 14.6743 6.99535C14.7396 6.92626 14.8048 6.85702 14.8698 6.7876C14.9587 6.69271 15.0482 6.5984 15.1378 6.50422C15.1632 6.47675 15.1887 6.44929 15.215 6.421C15.5672 6.054 16.0112 5.87717 16.4926 6.09503Z" fill="#2D2E83"/>
</svg>
